<svg xmlns="http://www.w3.org/2000/svg" viewBox="0 0 128 128" role="img" aria-label="JR Digital Solution">
  <defs>
    <linearGradient id="g" x1="16" y1="16" x2="112" y2="112" gradientUnits="userSpaceOnUse">
      <stop offset="0" stop-color="#22c55e"/>
      <stop offset="0.48" stop-color="#14b8a6"/>
      <stop offset="1" stop-color="#0f766e"/>
    </linearGradient>
    <filter id="s" x="-20%" y="-20%" width="140%" height="140%">
      <feDropShadow dx="0" dy="8" stdDeviation="8" flood-color="#064e3b" flood-opacity="0.24"/>
    </filter>
  </defs>
  <rect x="10" y="10" width="108" height="108" rx="30" fill="url(#g)" filter="url(#s)"/>
  <path d="M41 36h18v40c0 14-8 23-23 23-5 0-9-1-13-3l4-15c2 1 5 2 8 2 4 0 6-2 6-7V36Z" fill="#ffffff"/>
  <path d="M67 36h25c14 0 23 8 23 20 0 8-4 14-11 17l14 25H99L87 77h-3v21H67V36Zm17 15v13h7c5 0 8-2 8-7s-3-6-8-6h-7Z" fill="#ffffff"/>
  <circle cx="101" cy="27" r="8" fill="#facc15"/>
</svg>
