<svg width="512" height="512" viewBox="0 0 512 512" fill="none" xmlns="http://www.w3.org/2000/svg">
  <rect width="512" height="512" rx="112" fill="#F9FAF8"/>
  <path d="M99 312C136 178 174 127 207 127C229 127 233 151 219 184L171 302C166 315 170 323 181 323C206 323 245 279 284 205" stroke="#008B96" stroke-width="26" stroke-linecap="round" stroke-linejoin="round"/>
  <path d="M284 205C301 175 316 158 330 154C348 149 356 165 348 184L313 274C306 292 310 303 323 303C340 303 366 282 399 240" stroke="#99C6CB" stroke-width="21" stroke-linecap="round" stroke-linejoin="round"/>
  <path d="M366 121L401 85" stroke="#008B96" stroke-width="22" stroke-linecap="round"/>
  <text x="256" y="387" text-anchor="middle" font-family="Segoe UI, Arial, sans-serif" font-size="34" font-style="italic" fill="#8A8A8A">Medicina e Saúde</text>
</svg>
